<svg width="26" height="32" viewBox="0 0 26 32" fill="none" xmlns="http://www.w3.org/2000/svg">
<path d="M2.375 31.6667C1.74167 31.6667 1.1875 31.4292 0.7125 30.9542C0.2375 30.4792 0 29.925 0 29.2917V2.375C0 1.74167 0.2375 1.1875 0.7125 0.7125C1.1875 0.2375 1.74167 0 2.375 0H22.9583C23.5917 0 24.1458 0.2375 24.6208 0.7125C25.0958 1.1875 25.3333 1.74167 25.3333 2.375V29.2917C25.3333 29.925 25.0958 30.4792 24.6208 30.9542C24.1458 31.4292 23.5917 31.6667 22.9583 31.6667H2.375ZM13.775 12.3896L16.7437 10.6875L19.7125 12.3896C19.8972 12.5215 20.0885 12.5281 20.2865 12.4094C20.4844 12.2906 20.5833 12.1125 20.5833 11.875V2.375H12.9042V11.875C12.9042 12.1125 13.0031 12.2906 13.201 12.4094C13.399 12.5281 13.5903 12.5215 13.775 12.3896Z" fill="#A0A0A0"/>
</svg>
