<svg width="26" height="25" viewBox="0 0 26 25" fill="none" xmlns="http://www.w3.org/2000/svg">
<path d="M12.6667 11.875C10.925 11.875 9.5 11.3208 8.39167 10.2125C7.28333 9.10417 6.72917 7.67917 6.72917 5.9375C6.72917 4.19583 7.28333 2.77083 8.39167 1.6625C9.5 0.554167 10.925 0 12.6667 0C14.4083 0 15.8333 0.554167 16.9417 1.6625C18.05 2.77083 18.6042 4.19583 18.6042 5.9375C18.6042 7.67917 18.05 9.10417 16.9417 10.2125C15.8333 11.3208 14.4083 11.875 12.6667 11.875ZM2.375 24.5812C1.71528 24.5812 1.15451 24.3503 0.692708 23.8885C0.230903 23.4267 0 22.866 0 22.2062V20.8604C0 19.8576 0.250694 19 0.752083 18.2875C1.25347 17.575 1.9 17.034 2.69167 16.6646C4.45972 15.8729 6.15521 15.2792 7.77813 14.8833C9.40104 14.4875 11.0306 14.2896 12.6667 14.2896C14.3028 14.2896 15.9257 14.4941 17.5354 14.9031C19.1451 15.3122 20.834 15.8993 22.6021 16.6646C23.4201 17.034 24.0799 17.575 24.5812 18.2875C25.0826 19 25.3333 19.8576 25.3333 20.8604V22.2062C25.3333 22.866 25.1024 23.4267 24.6406 23.8885C24.1788 24.3503 23.6181 24.5812 22.9583 24.5812H2.375Z" fill="#A0A0A0"/>
</svg>
