<svg width="26" height="25" viewBox="0 0 26 25" fill="none" xmlns="http://www.w3.org/2000/svg">
<path d="M12.6667 12.0586C10.925 12.0586 9.5 11.505 8.39167 10.3978C7.28333 9.29055 6.72917 7.86698 6.72917 6.12707C6.72917 4.38716 7.28333 2.9636 8.39167 1.85638C9.5 0.749165 10.925 0.195557 12.6667 0.195557C14.4083 0.195557 15.8333 0.749165 16.9417 1.85638C18.05 2.9636 18.6042 4.38716 18.6042 6.12707C18.6042 7.86698 18.05 9.29055 16.9417 10.3978C15.8333 11.505 14.4083 12.0586 12.6667 12.0586ZM2.375 24.752C1.71528 24.752 1.15451 24.5214 0.692708 24.06C0.230903 23.5987 0 23.0385 0 22.3794V21.0349C0 20.0332 0.250694 19.1764 0.752083 18.4646C1.25347 17.7528 1.9 17.2124 2.69167 16.8433C4.45972 16.0525 6.15521 15.4593 7.77813 15.0639C9.40104 14.6685 11.0306 14.4707 12.6667 14.4707C14.3028 14.4707 15.9257 14.675 17.5354 15.0837C19.1451 15.4923 20.834 16.0788 22.6021 16.8433C23.4201 17.2124 24.0799 17.7528 24.5812 18.4646C25.0826 19.1764 25.3333 20.0332 25.3333 21.0349V22.3794C25.3333 23.0385 25.1024 23.5987 24.6406 24.06C24.1788 24.5214 23.6181 24.752 22.9583 24.752H2.375Z" fill="white"/>
</svg>
