<svg width="32" height="29" viewBox="0 0 32 29" fill="none" xmlns="http://www.w3.org/2000/svg">
<path d="M1.1875 28.5C0.844444 28.5 0.560764 28.3878 0.336458 28.1635C0.112153 27.9392 0 27.6556 0 27.3125V10.6875C0 10.3444 0.112153 10.0608 0.336458 9.83646C0.560764 9.61215 0.844444 9.5 1.1875 9.5H6.72917C7.07222 9.5 7.3559 9.61215 7.58021 9.83646C7.80451 10.0608 7.91667 10.3444 7.91667 10.6875V27.3125C7.91667 27.6556 7.80451 27.9392 7.58021 28.1635C7.3559 28.3878 7.07222 28.5 6.72917 28.5H1.1875ZM13.0625 28.5C12.7194 28.5 12.4358 28.3878 12.2115 28.1635C11.9872 27.9392 11.875 27.6556 11.875 27.3125V1.1875C11.875 0.844444 11.9872 0.560764 12.2115 0.336459C12.4358 0.112153 12.7194 0 13.0625 0H18.6042C18.9472 0 19.2309 0.112153 19.4552 0.336459C19.6795 0.560764 19.7917 0.844444 19.7917 1.1875V27.3125C19.7917 27.6556 19.6795 27.9392 19.4552 28.1635C19.2309 28.3878 18.9472 28.5 18.6042 28.5H13.0625ZM24.9375 28.5C24.5944 28.5 24.3108 28.3878 24.0865 28.1635C23.8622 27.9392 23.75 27.6556 23.75 27.3125V13.8542C23.75 13.5111 23.8622 13.2274 24.0865 13.0031C24.3108 12.7788 24.5944 12.6667 24.9375 12.6667H30.4792C30.8222 12.6667 31.1059 12.7788 31.3302 13.0031C31.5545 13.2274 31.6667 13.5111 31.6667 13.8542V27.3125C31.6667 27.6556 31.5545 27.9392 31.3302 28.1635C31.1059 28.3878 30.8222 28.5 30.4792 28.5H24.9375Z" fill="white"/>
</svg>
